<svg width="200" height="181" viewBox="0 0 200 181" fill="none" xmlns="http://www.w3.org/2000/svg">
<path d="M7.25916 0.389249C3.5142 0.389249 0.470215 3.43324 0.470215 7.1782C0.470215 19.7104 0.470215 119.996 0.470215 132.528C0.470215 136.273 3.5142 139.317 7.25916 139.317C9.80357 139.317 22.5295 139.317 45.4368 139.317C45.9054 141.505 46.1688 142.721 46.2191 142.965C47.0518 146.845 50.2042 149.796 54.0189 150.474C52.4504 153.29 51.5558 156.523 51.5558 159.966C51.5558 170.748 60.3276 179.524 71.1093 179.524C81.895 179.524 90.6668 170.748 90.6668 159.966C90.6668 156.585 89.8032 153.402 88.2889 150.625C89.9116 150.625 102.905 150.625 104.527 150.625C103.013 153.402 102.15 156.585 102.15 159.966C102.15 170.748 110.921 179.524 121.707 179.524C132.489 179.524 141.264 170.748 141.264 159.966C141.264 156.562 140.385 153.359 138.852 150.571C142.976 150.145 146.469 147.082 147.356 142.965C148.762 136.408 155.807 103.622 168.486 44.6123H192.935C192.935 97.3631 192.935 126.668 192.935 132.528C192.935 133.062 192.501 133.5 191.967 133.5C188.795 133.5 163.436 133.5 160.264 133.5C158.657 133.5 157.356 134.801 157.356 136.408C157.356 138.016 158.657 139.317 160.264 139.317C163.436 139.317 188.795 139.317 191.967 139.317C195.712 139.317 198.755 136.273 198.755 132.528C198.755 119.996 198.755 19.7104 198.755 7.17432C198.755 3.43324 195.712 0.385376 191.967 0.385376C191.967 0.385376 25.7284 0.389249 7.25916 0.389249ZM57.3727 159.966C57.3727 152.391 63.5342 146.23 71.1093 146.23C78.6845 146.23 84.846 152.391 84.846 159.966C84.846 167.541 78.6845 173.703 71.1093 173.703C63.5342 173.703 57.3727 167.541 57.3727 159.966ZM107.97 159.966C107.97 152.391 114.132 146.23 121.707 146.23C129.282 146.23 135.444 152.391 135.444 159.966C135.444 167.541 129.282 173.703 121.707 173.703C114.132 173.703 107.97 167.541 107.97 159.966ZM184.663 38.7915C186.614 37.0178 187.838 34.4579 187.838 31.6192C187.838 26.2709 183.489 21.9218 178.141 21.9218C177.227 21.9218 169.903 21.9218 168.989 21.9218C160.028 21.9218 152.158 28.2809 150.272 37.041C150.249 37.1572 150.121 37.742 149.897 38.7915C133.414 38.7915 124.255 38.7915 122.423 38.7915C120.816 38.7915 119.511 40.0967 119.511 41.7038C119.511 43.311 120.816 44.6123 122.423 44.6123C124.17 44.6123 132.911 44.6123 148.65 44.6123L145.695 58.3567C82.3055 58.3567 47.0866 58.3567 40.0459 58.3567C37.0988 58.3567 34.3491 59.6696 32.5018 61.9622C30.6506 64.251 29.9419 67.2137 30.5616 70.0912C31.278 73.4334 37.0174 100.144 37.7378 103.482C38.0747 105.054 39.6199 106.05 41.1923 105.717C42.7607 105.38 43.7638 103.831 43.4269 102.262C42.7065 98.92 36.9671 72.2096 36.2506 68.8713C36.0028 67.721 36.2855 66.5321 37.0252 65.6181C37.7649 64.7003 38.8648 64.1775 40.0459 64.1775C50.8432 64.1775 137.244 64.1775 148.046 64.1775C149.417 64.1775 150.602 63.217 150.892 61.877C151.399 59.5147 155.458 40.6272 155.965 38.2648C157.274 32.1652 162.75 27.7425 168.989 27.7425C169.903 27.7425 177.227 27.7425 178.141 27.7425C180.279 27.7425 182.021 29.4814 182.021 31.6192C182.021 33.7608 180.279 35.4997 178.141 35.4997C177.227 35.4997 169.903 35.4997 168.989 35.4997C166.383 35.4997 164.098 37.347 163.548 39.8953C161.36 50.0806 143.855 131.556 141.667 141.741C141.284 143.519 139.692 144.808 137.876 144.808C137.492 144.808 134.429 144.808 134.046 144.808C130.676 142.059 126.381 140.409 121.707 140.409C117.033 140.409 112.738 142.059 109.368 144.808C106.777 144.808 86.0427 144.808 83.448 144.808C80.0825 142.059 75.7838 140.409 71.1093 140.409C66.4349 140.409 62.14 142.059 58.7746 144.808C58.4648 144.808 56.0095 144.808 55.7035 144.808C53.8872 144.808 52.2916 143.519 51.9082 141.741C51.3118 138.964 46.5328 116.731 45.9364 113.95C45.5995 112.378 44.0542 111.383 42.4819 111.716C40.9096 112.056 39.9104 113.602 40.2473 115.174C40.5107 116.394 41.8235 122.501 44.1859 133.5C22.0299 133.5 9.72224 133.5 7.25916 133.5C6.72472 133.5 6.29097 133.066 6.29097 132.528C6.29097 126.668 6.29097 97.3631 6.29097 44.6123C67.895 44.6123 102.119 44.6123 108.966 44.6123C110.573 44.6123 111.874 43.311 111.874 41.7038C111.874 40.0967 110.573 38.7915 108.966 38.7915C102.119 38.7915 67.895 38.7915 6.29097 38.7915C6.29097 19.8228 6.29097 9.28498 6.29097 7.17432C6.29097 6.63988 6.72472 6.20613 7.25916 6.20613C25.7284 6.20613 173.497 6.20613 191.967 6.20613C192.501 6.20613 192.935 6.63988 192.935 7.17432C192.935 9.28498 192.935 19.8228 192.935 38.7915C188.524 38.7915 185.766 38.7915 184.663 38.7915Z" fill="#94A2B3"/>
<path d="M21.9758 16.7168C18.8428 16.7168 16.3022 19.2573 16.3022 22.3904C16.3022 25.5235 18.8428 28.064 21.9758 28.064C25.1089 28.064 27.6494 25.5235 27.6494 22.3904C27.6494 19.2573 25.1089 16.7168 21.9758 16.7168Z" fill="#94A2B3"/>
<path d="M39.2288 16.7168C36.0957 16.7168 33.5552 19.2573 33.5552 22.3904C33.5552 25.5235 36.0957 28.064 39.2288 28.064C42.3618 28.064 44.9024 25.5235 44.9024 22.3904C44.9024 19.2573 42.3618 16.7168 39.2288 16.7168Z" fill="#94A2B3"/>
<path d="M56.4856 16.7168C53.3525 16.7168 50.812 19.2573 50.812 22.3904C50.812 25.5235 53.3525 28.064 56.4856 28.064C59.6187 28.064 62.1592 25.5235 62.1592 22.3904C62.1592 19.2573 59.6187 16.7168 56.4856 16.7168Z" fill="#94A2B3"/>
<path d="M87.8512 120.515C87.0379 120.515 86.2634 120.855 85.7134 121.456C85.1635 122.052 84.8847 122.854 84.9544 123.663C85.0396 124.736 85.7483 133.306 85.8335 134.375C85.9574 135.886 87.22 137.047 88.7342 137.047C90.2678 137.047 102.548 137.047 104.082 137.047C105.596 137.047 106.859 135.886 106.983 134.375C107.072 133.306 107.777 124.736 107.866 123.663C107.931 122.854 107.657 122.052 107.103 121.456C106.553 120.855 105.778 120.515 104.965 120.515C101.541 120.515 89.563 120.515 87.8512 120.515ZM101.402 131.227H91.4141L91.0114 126.335H101.805L101.402 131.227Z" fill="#94A2B3"/>
<path d="M47.9037 86.167C48.1903 87.5108 49.3754 88.4674 50.7464 88.4674C52.7834 88.4674 69.0722 88.4674 71.1093 88.4674C72.763 88.5022 74.1804 86.9609 74.01 85.3188C73.9209 84.2461 73.2161 75.6757 73.127 74.6068C73.0031 73.0964 71.7406 71.9346 70.2263 71.9346C68.0498 71.9346 50.6263 71.9346 48.4459 71.9346C46.649 71.892 45.1812 73.7083 45.6033 75.4549C46.0603 77.5965 47.4429 84.0253 47.9037 86.167ZM67.5503 77.7553L67.9491 82.6466H53.0971L52.0476 77.7553H67.5503Z" fill="#94A2B3"/>
<path d="M58.8829 120.515C58.0038 120.515 57.1751 120.913 56.6212 121.595C56.0674 122.281 55.8544 123.179 56.0403 124.035C56.2688 125.108 58.1123 133.678 58.3408 134.751C58.6312 136.091 59.8163 137.047 61.1872 137.047C62.5776 137.047 73.7195 137.047 75.1098 137.047C75.9231 137.047 76.7015 136.707 77.2514 136.11C77.8014 135.51 78.0763 134.708 78.0105 133.899C77.9214 132.826 77.2166 124.259 77.1275 123.187C77.0036 121.676 75.7411 120.515 74.2268 120.515C71.1596 120.515 61.954 120.515 58.8829 120.515ZM63.538 131.227L62.4846 126.335H71.5469L71.9496 131.227H63.538Z" fill="#94A2B3"/>
<path d="M53.6665 96.2246C52.7873 96.2246 51.9547 96.6235 51.4009 97.3051C50.851 97.9906 50.638 98.8852 50.82 99.7449C51.0523 100.818 52.8919 109.388 53.1243 110.461C53.4109 111.801 54.5959 112.757 55.9669 112.757C57.6825 112.757 71.396 112.757 73.1116 112.757C73.9249 112.757 74.6994 112.417 75.2494 111.82C75.7993 111.22 76.0781 110.418 76.0084 109.609C75.9232 108.536 75.2145 99.9696 75.1293 98.8968C75.0015 97.3864 73.7429 96.2246 72.2286 96.2246C68.5146 96.2246 57.3766 96.2246 53.6665 96.2246ZM58.3176 106.937L57.2681 102.045H69.5487L69.9514 106.937H58.3176Z" fill="#94A2B3"/>
<path d="M81.8329 85.7952C81.9607 87.3056 83.2194 88.4674 84.7336 88.4674C87.0689 88.4674 105.747 88.4674 108.082 88.4674C109.597 88.4674 110.859 87.3056 110.983 85.7952C111.068 84.7224 111.777 76.1559 111.862 75.0832C112.033 73.4411 110.615 71.8997 108.965 71.9346C106.452 71.9346 86.3641 71.9346 83.8506 71.9346C82.2008 71.8997 80.7795 73.4411 80.9499 75.0832C81.1281 77.2248 81.6586 83.6536 81.8329 85.7952ZM105.805 77.7554L105.403 82.6466H87.4136L87.0108 77.7554H105.805Z" fill="#94A2B3"/>
<path d="M137.609 112.757C138.979 112.757 140.165 111.801 140.451 110.457C140.684 109.388 142.523 100.818 142.755 99.7449C142.937 98.8852 142.724 97.9906 142.175 97.3051C141.621 96.6235 140.788 96.2246 139.909 96.2246C137.976 96.2246 122.52 96.2246 120.588 96.2246C119.074 96.2246 117.815 97.3864 117.691 98.8968C117.602 99.9657 116.897 108.536 116.808 109.609C116.742 110.418 117.017 111.22 117.567 111.82C118.117 112.417 118.895 112.757 119.709 112.757C123.287 112.757 135.819 112.757 137.609 112.757ZM123.268 102.045H136.307L135.258 106.937H122.865L123.268 102.045Z" fill="#94A2B3"/>
<path d="M142.825 88.4674C144.196 88.4674 145.381 87.5069 145.671 86.167C145.9 85.0981 147.743 76.5277 147.972 75.4549C148.394 73.7083 146.926 71.892 145.129 71.9346C142.875 71.9346 124.844 71.9346 122.59 71.9346C121.075 71.9346 119.813 73.0964 119.689 74.6068C119.6 75.6757 118.895 84.2461 118.806 85.3188C118.636 86.9609 120.053 88.5022 121.707 88.4674C125.932 88.4674 140.714 88.4674 142.825 88.4674ZM125.27 77.7553H141.527L140.474 82.6466H124.867L125.27 77.7553Z" fill="#94A2B3"/>
<path d="M85.8532 96.2246C85.0399 96.2246 84.2615 96.5654 83.7115 97.1657C83.1616 97.7621 82.8866 98.5638 82.9525 99.3732C83.0415 100.446 83.7464 109.016 83.8355 110.085C83.9594 111.596 85.218 112.757 86.7323 112.757C88.6687 112.757 104.148 112.757 106.084 112.757C107.599 112.757 108.857 111.596 108.981 110.085C109.07 109.016 109.775 100.446 109.864 99.3732C109.93 98.5638 109.655 97.7621 109.105 97.1657C108.555 96.5654 107.777 96.2246 106.964 96.2246C102.742 96.2246 87.9638 96.2246 85.8532 96.2246ZM103.405 106.937H89.4161L89.0133 102.045H103.807L103.405 106.937Z" fill="#94A2B3"/>
<path d="M132.388 137.047C133.759 137.047 134.944 136.091 135.234 134.747C135.463 133.678 137.306 125.108 137.535 124.035C137.721 123.175 137.508 122.281 136.954 121.595C136.4 120.913 135.567 120.515 134.688 120.515C133.081 120.515 120.2 120.515 118.589 120.515C117.075 120.515 115.812 121.676 115.688 123.187C115.599 124.259 114.895 132.826 114.805 133.899C114.74 134.708 115.015 135.51 115.568 136.11C116.118 136.707 116.893 137.047 117.706 137.047C120.642 137.047 130.92 137.047 132.388 137.047ZM121.269 126.335H131.09L130.037 131.227H120.866L121.269 126.335Z" fill="#94A2B3"/>
<path d="M66.1172 159.966C66.1172 162.724 68.3518 164.958 71.1092 164.958C73.8666 164.958 76.105 162.724 76.105 159.966C76.105 157.209 73.8666 154.97 71.1092 154.97C68.3518 154.97 66.1172 157.209 66.1172 159.966Z" fill="#94A2B3"/>
<path d="M116.711 159.966C116.711 162.724 118.949 164.958 121.707 164.958C124.464 164.958 126.699 162.724 126.699 159.966C126.699 157.209 124.464 154.97 121.707 154.97C118.949 154.97 116.711 157.209 116.711 159.966Z" fill="#94A2B3"/>
</svg>
