<svg width="185" height="200" viewBox="0 0 185 200" fill="none" xmlns="http://www.w3.org/2000/svg">
<g clip-path="url(#clip0)">
<path d="M58.5611 80C61.9513 80 64.6996 77.0152 64.6996 73.3333V66.6667C64.6996 62.9848 61.9513 60 58.5611 60H21.7303C18.3401 60 15.5918 62.9848 15.5918 66.6667V73.3333C15.5918 77.0152 18.3401 80 21.7303 80H58.5611ZM21.7303 66.6667H58.5611V73.3333H21.7303V66.6667Z" fill="#E86628"/>
<path d="M27.8688 86.6667C22.7836 86.6667 18.6611 91.1438 18.6611 96.6667C18.6611 102.19 22.7836 106.667 27.8688 106.667C32.9541 106.667 37.0765 102.19 37.0765 96.6667C37.0765 91.1438 32.9541 86.6667 27.8688 86.6667ZM27.8688 100C26.1737 100 24.7996 98.5076 24.7996 96.6667C24.7996 94.8257 26.1737 93.3334 27.8688 93.3334C29.5639 93.3334 30.9381 94.8257 30.9381 96.6667C30.9381 98.5076 29.5639 100 27.8688 100Z" fill="#E86628"/>
<path d="M27.8688 110C22.7836 110 18.6611 114.477 18.6611 120C18.6611 125.523 22.7836 130 27.8688 130C32.9541 130 37.0765 125.523 37.0765 120C37.0765 114.477 32.9541 110 27.8688 110ZM27.8688 123.333C26.1737 123.333 24.7996 121.841 24.7996 120C24.7996 118.159 26.1737 116.667 27.8688 116.667C29.5639 116.667 30.9381 118.159 30.9381 120C30.9381 121.841 29.5639 123.333 27.8688 123.333Z" fill="#E86628"/>
<path d="M27.8688 133.333C22.7836 133.333 18.6611 137.81 18.6611 143.333C18.6611 148.856 22.7836 153.333 27.8688 153.333C32.9541 153.333 37.0765 148.856 37.0765 143.333C37.0765 137.81 32.9541 133.333 27.8688 133.333ZM27.8688 146.667C26.1737 146.667 24.7996 145.174 24.7996 143.333C24.7996 141.492 26.1737 140 27.8688 140C29.5639 140 30.9381 141.492 30.9381 143.333C30.9381 145.174 29.5639 146.667 27.8688 146.667Z" fill="#E86628"/>
<path d="M52.4226 86.6667C47.3373 86.6667 43.2148 91.1438 43.2148 96.6667C43.2148 102.19 47.3373 106.667 52.4226 106.667C57.5078 106.667 61.6303 102.19 61.6303 96.6667C61.6303 91.1438 57.5078 86.6667 52.4226 86.6667ZM52.4226 100C50.7275 100 49.3533 98.5076 49.3533 96.6667C49.3533 94.8257 50.7275 93.3334 52.4226 93.3334C54.1176 93.3334 55.4918 94.8257 55.4918 96.6667C55.4918 98.5076 54.1176 100 52.4226 100Z" fill="#E86628"/>
<path d="M52.4226 110C47.3373 110 43.2148 114.477 43.2148 120C43.2148 125.523 47.3373 130 52.4226 130C57.5078 130 61.6303 125.523 61.6303 120C61.6303 114.477 57.5078 110 52.4226 110ZM52.4226 123.333C50.7275 123.333 49.3533 121.841 49.3533 120C49.3533 118.159 50.7275 116.667 52.4226 116.667C54.1176 116.667 55.4918 118.159 55.4918 120C55.4918 121.841 54.1176 123.333 52.4226 123.333Z" fill="#E86628"/>
<path d="M52.4226 133.333C47.3373 133.333 43.2148 137.81 43.2148 143.333C43.2148 148.856 47.3373 153.333 52.4226 153.333C57.5078 153.333 61.6303 148.856 61.6303 143.333C61.6303 137.81 57.5078 133.333 52.4226 133.333ZM52.4226 146.667C50.7275 146.667 49.3533 145.174 49.3533 143.333C49.3533 141.492 50.7275 140 52.4226 140C54.1176 140 55.4918 141.492 55.4918 143.333C55.4918 145.174 54.1176 146.667 52.4226 146.667Z" fill="#E86628"/>
<path d="M147.324 133.333C147.324 135.174 148.698 136.667 150.393 136.667C152.088 136.667 153.462 135.174 153.462 133.333C153.462 125.093 146.811 118.247 138.116 116.917V113.333C138.116 111.492 136.742 110 135.047 110C133.352 110 131.978 111.492 131.978 113.333V116.917C123.282 118.25 116.631 125.093 116.631 133.333C116.631 141.573 123.282 148.42 131.978 149.75V169.643C126.698 168.527 122.77 164.643 122.77 160C122.77 158.159 121.396 156.667 119.701 156.667C118.005 156.667 116.631 158.159 116.631 160C116.631 168.24 123.282 175.087 131.978 176.417V180C131.978 181.841 133.352 183.333 135.047 183.333C136.742 183.333 138.116 181.841 138.116 180V176.417C146.811 175.083 153.462 168.24 153.462 160C153.462 151.76 146.811 144.913 138.116 143.583V123.69C143.395 124.807 147.324 128.687 147.324 133.333ZM122.77 133.333C122.77 128.687 126.698 124.807 131.978 123.69V142.977C126.698 141.86 122.77 137.98 122.77 133.333ZM147.324 160C147.324 164.647 143.395 168.527 138.116 169.643V150.357C143.395 151.473 147.324 155.353 147.324 160Z" fill="#E86628"/>
<path d="M116.631 97.26V70L157.977 90.08C167.262 94.5903 178.155 90.0721 182.308 79.9883C186.461 69.9045 182.301 58.0737 173.016 53.5633L116.631 26.1767V23.3333C116.641 14.1332 123.506 6.67769 131.977 6.66667C133.672 6.66667 135.047 5.17428 135.047 3.33333C135.047 1.49238 133.672 0 131.977 0H58.5612C46.7012 0.0146955 37.0901 10.4528 37.0766 23.3333V46.6667H12.5227C7.43742 46.6667 3.31499 51.1438 3.31499 56.6667V156.667C3.31499 162.19 7.43742 166.667 12.5227 166.667H37.0766V173.333H6.69115C4.87505 173.323 3.14875 174.19 1.97993 175.7C0.811102 177.209 0.32074 179.205 0.641687 181.147C2.628 192.091 11.4589 199.986 21.7304 200H95.1465C100.97 199.987 106.537 197.399 110.566 192.833C130.46 205.285 155.644 201.093 171.19 182.741C186.736 164.389 188.488 136.784 175.407 116.289C162.326 95.7947 137.91 87.8896 116.631 97.26ZM92.2737 45.5167L98.6301 30.1433L105.361 30.06L96.7333 51L92.2737 45.5167ZM79.828 30.1833H91.8901L87.8172 40.0367L79.828 30.1833ZM105.404 46.3C123.69 55.18 122.549 54.7533 123.466 54.7533C124.915 54.755 126.168 53.6558 126.471 52.1169C126.774 50.578 126.045 49.0187 124.722 48.3767L107.911 40.2L111.671 31.07L153.695 51.4833L149.939 60.61L135.927 53.8067C134.926 53.3208 133.763 53.4519 132.875 54.1505C131.987 54.8492 131.509 56.0093 131.622 57.1939C131.735 58.3784 132.422 59.4075 133.423 59.8933L147.431 66.6967L143.671 75.8267L101.647 55.4133L105.404 46.3ZM164.901 56.94L154.88 81.2733L149.276 78.5533L159.3 54.22L164.901 56.94ZM176.979 67.05C178.73 72.0903 177.525 77.7799 173.922 81.4826C170.319 85.1853 165.022 86.1777 160.484 84L170.509 59.6667C173.478 61.097 175.805 63.7471 176.979 67.0367V67.05ZM9.45346 156.667V56.6667C9.45346 54.8257 10.8276 53.3333 12.5227 53.3333H67.769C69.4641 53.3333 70.8382 54.8257 70.8382 56.6667V156.667C70.8382 158.508 69.4641 160 67.769 160H12.5227C10.8276 160 9.45346 158.508 9.45346 156.667ZM6.69115 180.02H73.9074C74.5827 185.084 76.7795 189.765 80.1564 193.333L21.7304 193.333C14.4393 193.351 8.14907 187.78 6.69729 180.02H6.69115ZM79.9784 179.093C79.5706 175.792 76.9745 173.329 73.9074 173.333H43.2151V166.667H67.769C72.8542 166.667 76.9767 162.19 76.9767 156.667V56.6667C76.9767 51.1438 72.8542 46.6667 67.769 46.6667H43.2151V23.3333C43.2252 14.1332 50.09 6.67769 58.5612 6.66667H116.938C112.793 11.0696 110.467 17.1094 110.493 23.4067C110.376 23.3757 110.258 23.3512 110.14 23.3333L110.085 23.4033H73.048C71.8394 23.4406 70.7577 24.2275 70.2659 25.4271C69.7742 26.6268 69.9597 28.0264 70.743 29.0267C99.158 64.0267 95.1895 59.2267 96.3497 60.1267L110.493 67.0167V100.55C96.2595 109.448 87.0804 125.502 86.0476 143.303C85.0147 161.104 92.2658 178.282 105.358 189.05C101.159 193.134 95.2339 194.384 89.9325 192.304C84.6311 190.223 80.81 185.149 79.9845 179.093H79.9784ZM135.047 193.333C117.667 193.333 101.999 181.963 95.3482 164.525C88.6973 147.087 92.3736 127.015 104.663 113.668C116.952 100.322 135.434 96.3292 151.49 103.552C167.547 110.775 178.016 127.792 178.016 146.667C177.991 172.429 158.767 193.306 135.047 193.333Z" fill="#E86628"/>
<path d="M107.46 125.037C105.996 124.111 104.118 124.65 103.265 126.24C97.1603 137.695 96.5527 151.654 101.635 163.683C102.068 164.808 103.031 165.586 104.147 165.713C105.263 165.84 106.354 165.295 106.992 164.292C107.63 163.29 107.713 161.989 107.209 160.9C102.966 150.841 103.474 139.173 108.571 129.593C109.423 128.002 108.926 125.962 107.46 125.037Z" fill="#E86628"/>
<path d="M162.633 125.037C161.168 125.962 160.67 128.002 161.522 129.593C166.619 139.173 167.127 150.841 162.885 160.9C162.381 161.989 162.464 163.29 163.101 164.292C163.739 165.295 164.83 165.84 165.946 165.713C167.062 165.586 168.026 164.808 168.459 163.683C173.541 151.654 172.933 137.695 166.829 126.24C165.976 124.65 164.098 124.111 162.633 125.037Z" fill="#E86628"/>
</g>
<defs>
<clipPath id="clip0">
<rect width="184.154" height="200" fill="white"/>
</clipPath>
</defs>
</svg>
