<svg width="200" height="200" viewBox="0 0 200 200" fill="none" xmlns="http://www.w3.org/2000/svg">
<path d="M121.875 68.75H34.3753C33.5465 68.75 32.7516 69.0792 32.1656 69.6653C31.5795 70.2513 31.2503 71.0462 31.2503 71.875V115.625H21.8753C18.5612 115.629 15.384 116.947 13.0406 119.29C10.6972 121.634 9.37901 124.811 9.37529 128.125V154.956L4.04053 160.29L8.46006 164.71L14.7101 158.46C15.0002 158.17 15.2304 157.825 15.3875 157.446C15.5445 157.067 15.6253 156.66 15.6253 156.25V128.125C15.6273 126.468 16.2864 124.879 17.458 123.708C18.6297 122.536 20.2183 121.877 21.8753 121.875H31.2503V129.955L25.9155 135.29L30.3351 139.71L44.3976 125.647C44.7229 125.322 45.1092 125.064 45.5344 124.888C45.9595 124.712 46.4151 124.621 46.8753 124.621C47.3354 124.621 47.7911 124.712 48.2162 124.888C48.6414 125.064 49.0276 125.322 49.353 125.647C49.6784 125.973 49.9365 126.359 50.1126 126.784C50.2887 127.209 50.3793 127.665 50.3793 128.125C50.3793 128.585 50.2887 129.041 50.1126 129.466C49.9365 129.891 49.6784 130.277 49.353 130.603L35.2905 144.665C35.0003 144.955 34.7701 145.3 34.6131 145.679C34.456 146.058 34.3752 146.465 34.3752 146.875C34.3752 147.285 34.456 147.692 34.6131 148.071C34.7701 148.45 35.0003 148.795 35.2905 149.085C36.6419 150.436 37.7139 152.04 38.4452 153.806C39.1766 155.572 39.553 157.464 39.553 159.375C39.553 161.286 39.1766 163.178 38.4452 164.944C37.7139 166.71 36.6419 168.314 35.2905 169.665L19.6655 185.29L24.0851 189.71L31.2503 182.545V190.625C31.2503 191.454 31.5795 192.249 32.1656 192.835C32.7516 193.421 33.5465 193.75 34.3753 193.75H121.875C122.704 193.75 123.499 193.421 124.085 192.835C124.671 192.249 125 191.454 125 190.625V71.875C125 71.0462 124.671 70.2513 124.085 69.6653C123.499 69.0792 122.704 68.75 121.875 68.75ZM118.75 187.5H37.5003V176.295L39.7101 174.085C43.2278 170.566 45.3683 165.902 45.7437 160.941C46.119 155.979 44.7044 151.047 41.7561 147.039L53.7726 135.022C55.5888 133.19 56.6054 130.713 56.5999 128.134C56.5943 125.554 55.5671 123.081 53.7429 121.257C51.9188 119.433 49.4463 118.406 46.8666 118.4C44.2869 118.395 41.81 119.411 39.978 121.228L37.5003 123.705V75H118.75V187.5Z" fill="#94A2B3"/>
<path d="M193.75 28.125V15.625C193.75 14.7962 193.421 14.0013 192.835 13.4153C192.249 12.8292 191.454 12.5 190.625 12.5H84.375C83.5462 12.5 82.7513 12.8292 82.1653 13.4153C81.5792 14.0013 81.25 14.7962 81.25 15.625V28.125C81.25 28.9538 81.5792 29.7487 82.1653 30.3347C82.7513 30.9208 83.5462 31.25 84.375 31.25V50H90.625V31.25H115.625V50C115.625 50.8288 115.954 51.6237 116.54 52.2097C117.126 52.7958 117.921 53.125 118.75 53.125H156.25C157.079 53.125 157.874 52.7958 158.46 52.2097C159.046 51.6237 159.375 50.8288 159.375 50V31.25H184.375V68.75H131.25V75H153.125V81.25H131.25V87.5H153.125V103.125H131.25V109.375H156.25C157.079 109.375 157.874 109.046 158.46 108.46C159.046 107.874 159.375 107.079 159.375 106.25V87.5H184.375V125H131.25V131.25H153.125V137.5H131.25V143.75H153.125V159.375H131.25V165.625H156.25C157.079 165.625 157.874 165.296 158.46 164.71C159.046 164.124 159.375 163.329 159.375 162.5V143.75H184.375V181.25H131.25V187.5H187.5C188.329 187.5 189.124 187.171 189.71 186.585C190.296 185.999 190.625 185.204 190.625 184.375V143.75C191.454 143.75 192.249 143.421 192.835 142.835C193.421 142.249 193.75 141.454 193.75 140.625V128.125C193.75 127.296 193.421 126.501 192.835 125.915C192.249 125.329 191.454 125 190.625 125V87.5C191.454 87.5 192.249 87.1708 192.835 86.5847C193.421 85.9987 193.75 85.2038 193.75 84.375V71.875C193.75 71.0462 193.421 70.2513 192.835 69.6653C192.249 69.0792 191.454 68.75 190.625 68.75V31.25C191.454 31.25 192.249 30.9208 192.835 30.3347C193.421 29.7487 193.75 28.9538 193.75 28.125ZM159.375 131.25H187.5V137.5H159.375V131.25ZM159.375 75H187.5V81.25H159.375V75ZM153.125 18.75V25H121.875V18.75H153.125ZM87.5 25V18.75H115.625V25H87.5ZM153.125 46.875H121.875V31.25H153.125V46.875ZM159.375 18.75H187.5V25H159.375V18.75Z" fill="#94A2B3"/>
<path d="M171.875 168.75H178.125V175H171.875V168.75Z" fill="#94A2B3"/>
<path d="M171.875 112.5H178.125V118.75H171.875V112.5Z" fill="#94A2B3"/>
<path d="M171.875 56.25H178.125V62.5H171.875V56.25Z" fill="#94A2B3"/>
<path d="M75 118.342V121.875H81.25V118.342C82.9461 117.81 84.4445 116.783 85.553 115.393C86.6615 114.004 87.3295 112.315 87.4713 110.543C87.6131 108.771 87.2223 106.997 86.3489 105.449C85.4755 103.9 84.1594 102.649 82.5695 101.854L76.4758 98.8066C75.9379 98.5378 75.5066 98.0952 75.2517 97.5506C74.9968 97.006 74.9333 96.3913 75.0714 95.8061C75.2095 95.2208 75.5412 94.6994 76.0127 94.3262C76.4842 93.953 77.0678 93.75 77.6691 93.75H78.5809C79.2885 93.7507 79.967 94.0322 80.4674 94.5326C80.9678 95.033 81.2493 95.7115 81.25 96.4191V96.875H87.5V96.4191C87.4976 94.5205 86.8905 92.672 85.7667 91.1417C84.6429 89.6113 83.0609 88.4788 81.25 87.9082V84.375H75V87.9082C73.3039 88.4403 71.8055 89.467 70.697 90.8566C69.5885 92.2462 68.9205 93.9353 68.7787 95.7073C68.6369 97.4792 69.0277 99.2531 69.9011 100.801C70.7745 102.35 72.0906 103.601 73.6805 104.396L79.7742 107.443C80.3121 107.712 80.7434 108.155 80.9983 108.699C81.2532 109.244 81.3167 109.859 81.1786 110.444C81.0405 111.029 80.7088 111.551 80.2373 111.924C79.7658 112.297 79.1822 112.5 78.5809 112.5H77.6691C76.9615 112.499 76.283 112.218 75.7826 111.717C75.2822 111.217 75.0007 110.539 75 109.831V109.375H68.75V109.831C68.7524 111.729 69.3595 113.578 70.4833 115.108C71.6071 116.639 73.1891 117.771 75 118.342Z" fill="#94A2B3"/>
<path d="M56.25 100H62.5V106.25H56.25V100Z" fill="#94A2B3"/>
<path d="M93.75 100H100V106.25H93.75V100Z" fill="#94A2B3"/>
<path d="M62.5 131.25H68.75V137.5H62.5V131.25Z" fill="#94A2B3"/>
<path d="M75 131.25H109.375V137.5H75V131.25Z" fill="#94A2B3"/>
<path d="M53.125 143.75H109.375V150H53.125V143.75Z" fill="#94A2B3"/>
<path d="M53.125 156.25H109.375V162.5H53.125V156.25Z" fill="#94A2B3"/>
<path d="M53.125 168.75H100V175H53.125V168.75Z" fill="#94A2B3"/>
<path d="M43.75 56.25H100V62.5H43.75V56.25Z" fill="#94A2B3"/>
<path d="M106.25 56.25H112.5V62.5H106.25V56.25Z" fill="#94A2B3"/>
</svg>
