<svg xmlns="http://www.w3.org/2000/svg" version="1.1" xmlns:xlink="http://www.w3.org/1999/xlink" xmlns:svgjs="http://svgjs.com/svgjs" width="512" height="512" x="0" y="0" viewBox="0 0 64 64" style="enable-background:new 0 0 512 512" xml:space="preserve" class=""><g><g xmlns="http://www.w3.org/2000/svg" id="Outline_ok" fill="rgb(0,0,0)" data-name="Outline ok"><path d="m58.829 30.01a1 1 0 0 1 -.993-.891 26.1 26.1 0 0 0 -22.954-22.955 1 1 0 1 1 .218-1.988 28.107 28.107 0 0 1 24.724 24.724 1 1 0 0 1 -.995 1.109z" fill="#000000" data-original="#000000"></path><path d="m29.011 59.83a1.014 1.014 0 0 1 -.11-.006 28.107 28.107 0 0 1 -24.725-24.724 1 1 0 0 1 1.988-.218 26.1 26.1 0 0 0 22.954 22.954 1 1 0 0 1 -.107 1.994z" fill="#000000" data-original="#000000"></path><path d="m5.171 30.01a1 1 0 0 1 -1-1.109 28.107 28.107 0 0 1 24.729-24.725 1 1 0 1 1 .217 1.988 26.1 26.1 0 0 0 -22.953 22.955 1 1 0 0 1 -.993.891z" fill="#000000" data-original="#000000"></path><path d="m34.989 59.83a1 1 0 0 1 -.107-1.994 26.1 26.1 0 0 0 22.954-22.955 1 1 0 0 1 1.988.218 28.107 28.107 0 0 1 -24.724 24.725 1.028 1.028 0 0 1 -.111.006z" fill="#000000" data-original="#000000"></path><path d="m41.59 43.19a1 1 0 0 1 -.96-.72 8.991 8.991 0 0 0 -17.26 0 1 1 0 1 1 -1.92-.56 10.991 10.991 0 0 1 21.1 0 1 1 0 0 1 -.68 1.24 1.013 1.013 0 0 1 -.28.04z" fill="#000000" data-original="#000000"></path><path d="m32 36a7 7 0 1 1 7-7 7.008 7.008 0 0 1 -7 7zm0-12a5 5 0 1 0 5 5 5.006 5.006 0 0 0 -5-5z" fill="#000000" data-original="#000000"></path><path d="m32 47a15 15 0 1 1 15-15 15.017 15.017 0 0 1 -15 15zm0-28a13 13 0 1 0 13 13 13.015 13.015 0 0 0 -13-13z" fill="#000000" data-original="#000000"></path><path d="m32 9a4 4 0 1 1 4-4 4 4 0 0 1 -4 4zm0-6a2 2 0 1 0 2 2 2 2 0 0 0 -2-2z" fill="#000000" data-original="#000000"></path><path d="m32 63a4 4 0 1 1 4-4 4 4 0 0 1 -4 4zm0-6a2 2 0 1 0 2 2 2 2 0 0 0 -2-2z" fill="#000000" data-original="#000000"></path><path d="m59 36a4 4 0 1 1 4-4 4 4 0 0 1 -4 4zm0-6a2 2 0 1 0 2 2 2 2 0 0 0 -2-2z" fill="#000000" data-original="#000000"></path><path d="m5 36a4 4 0 1 1 4-4 4 4 0 0 1 -4 4zm0-6a2 2 0 1 0 2 2 2 2 0 0 0 -2-2z" fill="#000000" data-original="#000000"></path><path d="m32 53a21 21 0 1 1 21-21 21.024 21.024 0 0 1 -21 21zm0-40a19 19 0 1 0 19 19 19.021 19.021 0 0 0 -19-19z" fill="#000000" data-original="#000000"></path><path d="m32 19a1 1 0 0 1 -1-1v-10a1 1 0 0 1 2 0v10a1 1 0 0 1 -1 1z" fill="#000000" data-original="#000000"></path><path d="m32 57a1 1 0 0 1 -1-1v-10a1 1 0 0 1 2 0v10a1 1 0 0 1 -1 1z" fill="#000000" data-original="#000000"></path><path d="m56 33h-10a1 1 0 0 1 0-2h10a1 1 0 0 1 0 2z" fill="#000000" data-original="#000000"></path><path d="m18 33h-10a1 1 0 0 1 0-2h10a1 1 0 0 1 0 2z" fill="#000000" data-original="#000000"></path></g></g></svg>