<svg xmlns="http://www.w3.org/2000/svg" version="1.1" xmlns:xlink="http://www.w3.org/1999/xlink" xmlns:svgjs="http://svgjs.com/svgjs" width="512" height="512" x="0" y="0" viewBox="0 0 512.001 512.001" style="enable-background:new 0 0 512 512" xml:space="preserve" class=""><g><g xmlns="http://www.w3.org/2000/svg"><path d="m503 82.657c-.576-2.516-2.405-4.56-4.843-5.408l-39.742-13.847-18.628-18.627-13.845-39.742c-.849-2.437-2.892-4.267-5.408-4.843-2.515-.578-5.151.183-6.978 2.007l-50.27 50.269c-35.655-20.383-76.142-31.136-117.487-31.136-129.063 0-236.988 107.852-236.988 236.987 0 129.138 107.928 236.988 236.988 236.988 19.053 0 38.013-2.269 56.354-6.742 4.024-.981 6.49-5.039 5.509-9.063-.981-4.023-5.036-6.486-9.063-5.509-17.179 4.189-34.942 6.314-52.799 6.314-121.596 0-221.988-100.436-221.988-221.988 0-121.554 100.393-221.987 221.988-221.987 37.354 0 73.956 9.368 106.466 27.157l-12.264 12.264c-2.034 2.035-2.726 5.055-1.778 7.771l12.864 36.919-5.341 5.341c-28.665-21.62-63.889-33.459-99.947-33.459-90.42 0-165.995 75.558-165.995 165.994 0 90.434 75.572 165.995 165.995 165.995 21.734 0 42.684-4.092 62.463-12.158-2.022 53.876 42.118 99.847 96.107 99.847 53.043 0 96.196-43.148 96.196-96.186 0-29.051-12.945-55.135-33.37-72.788 10.347-27.009 15.591-55.478 15.591-84.71 0-41.821-10.988-82.714-31.814-118.664l50.02-50.019c1.826-1.825 2.584-4.461 2.007-6.977zm-247.156 175.139-10.449-10.449 187.876-187.876 10.448 10.447zm98.092-174.766 61.774-61.773 8.929 25.631-61.773 61.773zm-108.137 326.282c-82.468 0-150.995-68.538-150.995-150.995 0-82.454 68.528-150.994 150.995-150.994 32.097 0 63.462 10.315 89.223 29.183l-28.41 28.41c-18.094-11.823-38.978-18.06-60.813-18.06-61.46 0-111.461 50.001-111.461 111.461s50.001 111.461 111.461 111.461 111.461-50.001 111.461-111.461c0-10.54-1.472-20.976-4.374-31.017-1.15-3.979-5.306-6.272-9.288-5.122-3.979 1.15-6.272 5.309-5.122 9.288 2.511 8.687 3.784 17.72 3.784 26.851 0 53.188-43.272 96.461-96.461 96.461s-96.461-43.272-96.461-96.461 43.272-96.461 96.461-96.461c17.828 0 34.921 4.801 49.943 13.93l-60.953 60.953-6.296-6.296c-2.93-2.928-7.678-2.928-10.607 0-2.929 2.93-2.929 7.678 0 10.607l44.255 44.255c1.465 1.464 3.385 2.196 5.304 2.196s3.839-.732 5.304-2.196c2.929-2.93 2.929-7.678 0-10.607l-6.296-6.296 28.972-28.972c2.279 5.995 3.468 12.389 3.468 18.886 0 29.275-23.817 53.092-53.092 53.092s-53.092-23.816-53.092-53.092c0-24.966 17.699-46.814 42.086-51.951 4.053-.854 6.646-4.832 5.793-8.885-.854-4.055-4.835-6.644-8.885-5.793-31.286 6.59-53.994 34.611-53.994 66.629 0 37.546 30.546 68.092 68.092 68.092s68.092-30.546 68.092-68.092c0-10.552-2.443-20.899-7.092-30.262l60.025-60.025c19.377 25.967 29.971 57.714 29.971 90.287 0 22.331-4.746 43.765-14.096 63.772-35.701 8.267-64.229 36.88-72.196 72.689-20.268 9.641-42.016 14.535-64.706 14.535zm239.767 6.503c0 44.766-36.425 81.186-81.196 81.186-44.323 0-81.185-36.908-81.185-81.186 0-37.371 25.284-69.769 61.499-78.787 6.376-1.599 13-2.409 19.686-2.409 44.771 0 81.196 36.425 81.196 81.196zm-17.779-157.498c0 26.004-4.438 51.353-13.177 75.496-16.281-10.011-35.463-14.932-54.549-14.088 7.785-19.476 11.733-40.072 11.733-61.408 0-36.537-12.122-72.134-34.26-100.999l5.214-5.215 36.918 12.863c.807.281 1.641.418 2.467.418 1.957 0 3.874-.767 5.305-2.196l12.533-12.532c18.221 32.813 27.816 69.829 27.816 107.661zm-47.627-109.063-25.631-8.93 61.774-61.774 25.631 8.93z" fill="#000000" data-original="#000000"></path><path d="m415.759 409.279c-1.311-.44-2.61-.885-3.884-1.329v-20.8c6.782 1.647 11.53 5.101 11.692 5.222 3.29 2.493 7.976 1.859 10.485-1.42 2.518-3.289 1.892-7.997-1.398-10.514-.497-.38-8.853-6.651-20.779-8.588v-14.183c0-4.143-3.357-7.5-7.5-7.5s-7.5 3.357-7.5 7.5v14.441c-12.172 2.492-23.197 12.325-21.742 25.704 1.375 12.646 11.496 16.825 21.742 20.662v25.618c-5.327-1.424-10.104-4.022-13.595-7.53-2.924-2.936-7.673-2.946-10.606-.023-2.936 2.923-2.946 7.672-.024 10.606 6.292 6.32 14.817 10.604 24.226 12.329v14.479c0 4.143 3.357 7.5 7.5 7.5s7.5-3.357 7.5-7.5v-14.029c32.309-4.723 33.389-40.737 3.883-50.645zm-22.638-8.336c-6.343-4.239-1.595-11.344 3.754-13.313v14.789c-1.251-.492-2.502-.984-3.754-1.476zm30.083 34.192c-.854 5.22-6.734 8.403-11.329 9.527 0-6.949 0-13.897 0-20.846 4.394 1.587 12.322 5.243 11.329 11.319z" fill="#000000" data-original="#000000"></path></g></g></svg>